<svg width="24" height="24" viewBox="0 0 24 24" fill="none" xmlns="http://www.w3.org/2000/svg">
<path d="M2.52202 14.7696C2.31002 16.1636 3.25784 17.1312 4.41832 17.6134C8.8674 19.4622 15.0588 19.4622 19.5078 17.6134C20.6683 17.1312 21.6161 16.1636 21.4042 14.7696C21.2739 13.9129 20.6296 13.1995 20.1523 12.5029C19.5271 11.5793 19.465 10.5718 19.4649 9.5C19.4649 5.35786 16.1062 2 11.9631 2C7.81994 2 4.46127 5.35786 4.46127 9.5C4.46117 10.5718 4.39905 11.5793 3.77386 12.5029C3.29656 13.1995 2.65231 13.9129 2.52202 14.7696Z" stroke="#4B5563" stroke-width="1.5" stroke-linecap="round" stroke-linejoin="round"/>
<path d="M7.97559 19C8.43267 20.7252 10.0447 22 11.9633 22C13.8819 22 15.494 20.7252 15.9511 19" stroke="#4B5563" stroke-width="1.5" stroke-linecap="round" stroke-linejoin="round"/>
</svg>
