<svg width="48" height="48" viewBox="0 0 48 48" fill="none" xmlns="http://www.w3.org/2000/svg">
<path opacity="0.21" fill-rule="evenodd" clip-rule="evenodd" d="M24 48C37.2548 48 48 37.2548 48 24C48 10.7452 37.2548 0 24 0C10.7452 0 0 10.7452 0 24C0 37.2548 10.7452 48 24 48Z" fill="#D1D5DB"/>
<path d="M20.242 27.758L27.758 20.242M20.242 27.758C20.6631 28.179 22.4989 27.9164 23.0605 27.9459M20.242 27.758C19.821 27.3369 20.0836 25.5011 20.0541 24.9395M27.758 20.242C28.179 20.6631 27.9164 22.4989 27.9459 23.0605M27.758 20.242C27.3369 19.821 25.5011 20.0836 24.9395 20.0541" stroke="#4B5563" stroke-width="1.5" stroke-linecap="round" stroke-linejoin="round"/>
<path d="M24 34C29.5228 34 34 29.5228 34 24C34 18.4772 29.5228 14 24 14C18.4772 14 14 18.4772 14 24C14 29.5228 18.4772 34 24 34Z" stroke="#4B5563" stroke-width="1.5"/>
</svg>
