<svg width="24" height="25" viewBox="0 0 24 25" fill="none" xmlns="http://www.w3.org/2000/svg">
<path d="M7.01416 16.5029H11.0142M7.01416 11.5053H15.0142" stroke="#4B5563" stroke-width="1.5" stroke-linecap="round"/>
<path d="M10.0142 22.4999H11.0142" stroke="#4B5563" stroke-width="1.5" stroke-linecap="round"/>
<path d="M7.51071 22.4999C6.33909 22.4749 5.53909 22.4 4.76409 22.1751C3.71479 21.9002 2.94893 20.9757 2.72409 19.6763C2.43909 18.4519 2.53909 15.4284 2.51404 11.8302C2.51611 9.03874 2.38908 6.35787 2.83908 4.83362C3.11408 4.33386 3.33908 2.50976 7.06409 2.53475C7.68909 2.50976 14.3141 2.45978 15.3641 2.55973C18.8641 2.6347 19.2141 4.43381 19.4141 6.13298C19.5409 7.38236 19.5141 9.38138 19.5141 11.5053M7.01409 2.50976C7.31409 4.13396 7.28909 5.18344 8.38909 5.43332C8.86409 5.50828 9.94938 5.50628 11.1141 5.50828C12.1537 5.51007 13.2141 5.51945 13.6891 5.40833C14.8641 5.13347 14.7391 3.68418 15.0391 2.50976" stroke="#4B5563" stroke-width="1.5" stroke-linecap="round"/>
<path d="M18.2785 14.8787C16.9044 16.278 14.2562 18.7768 14.2562 18.9517C14.0426 19.2483 13.8564 19.8512 13.7315 20.7008C13.5746 21.4884 13.3867 22.1751 13.6066 22.375C13.8265 22.5749 14.6544 22.4064 15.5303 22.2251C16.2298 22.1501 16.8794 21.9002 17.2042 21.6504C17.6789 21.2304 20.9017 17.9772 21.2765 17.5524C21.5513 17.1776 21.5763 16.4779 21.3364 16.0531C21.2015 15.7533 20.3521 14.9536 20.0773 14.7288C19.5776 14.4289 18.8781 14.3789 18.2785 14.8787Z" stroke="#4B5563" stroke-width="1.5" stroke-linecap="round"/>
</svg>
