<svg width="24" height="25" viewBox="0 0 24 25" fill="none" xmlns="http://www.w3.org/2000/svg">
<path d="M12.5 22.5H9.5C6.20017 22.5 4.55025 22.5 3.52513 21.4209C2.5 20.3418 2.5 18.6051 2.5 15.1316V9.86842C2.5 6.39491 2.5 4.65816 3.52513 3.57908C4.55025 2.5 6.20017 2.5 9.5 2.5H12.5C15.7998 2.5 17.4497 2.5 18.4749 3.57908C19.5 4.65816 19.5 6.39491 19.5 9.86842V11.5" stroke="#4B5563" stroke-width="1.5" stroke-linecap="round" stroke-linejoin="round"/>
<path d="M18 15.5V22.5M21.5 19H14.5" stroke="#4B5563" stroke-width="1.5" stroke-linecap="round"/>
<path d="M7 2.5L7.0822 2.9932C7.28174 4.19044 7.38151 4.78906 7.80113 5.14453C8.22075 5.5 8.82762 5.5 10.0414 5.5H11.9586C13.1724 5.5 13.7793 5.5 14.1989 5.14453C14.6185 4.78906 14.7183 4.19044 14.9178 2.9932L15 2.5" stroke="#4B5563" stroke-width="1.5" stroke-linecap="round" stroke-linejoin="round"/>
<path d="M7 16.5H11M7 11.5H15" stroke="#4B5563" stroke-width="1.5" stroke-linecap="round"/>
</svg>
