<svg id="Layer_1" data-name="Layer 1" xmlns="http://www.w3.org/2000/svg" xmlns:xlink="http://www.w3.org/1999/xlink" viewBox="0 0 500 500"><defs><style>.cls-1{fill:none;}.cls-2,.cls-8{fill:#5051f9;}.cls-3{clip-path:url(#clip-path);}.cls-4{clip-path:url(#clip-path-2);}.cls-5{clip-path:url(#clip-path-3);}.cls-6{clip-path:url(#clip-path-4);}.cls-7{clip-path:url(#clip-path-5);}.cls-8{fill-rule:evenodd;}</style><clipPath id="clip-path"><rect x="385.1" y="255.42" width="5" height="25.1"/></clipPath><clipPath id="clip-path-2"><rect class="cls-1" x="66.24" y="225.69" width="97.56" height="9.28"/></clipPath><clipPath id="clip-path-3"><rect class="cls-1" x="78.53" y="234.79" width="9.28" height="46.9"/></clipPath><clipPath id="clip-path-4"><rect class="cls-1" x="149.67" y="223.81" width="24.97" height="13.05"/></clipPath><clipPath id="clip-path-5"><polygon class="cls-1" points="174.62 230.33 163.43 223.81 163.43 229.41 149.67 229.41 149.67 231.26 163.43 231.26 163.43 236.86 174.62 230.33"/></clipPath></defs><path class="cls-2" d="M126.09,239.06H137.3v41.35H126.09v-4.64q-3.44,4.49-10.4,4.48a19.73,19.73,0,0,1-14.56-5.92A20,20,0,0,1,95,259.77a19.73,19.73,0,0,1,5.92-14.56,20,20,0,0,1,14.56-6.15c4.7,0,8.24,1.52,10.65,4.56Zm-3.36,27.75a9.8,9.8,0,0,0,3-7.19,9.52,9.52,0,0,0-3-7.21,9.23,9.23,0,0,0-7.12-2.87,10.16,10.16,0,1,0,.08,20.31A10.09,10.09,0,0,0,122.73,266.81Z"/><path class="cls-2" d="M155.85,280.86a19.18,19.18,0,0,1-7.29-1.27,15.44,15.44,0,0,1-5.11-3.29,12.81,12.81,0,0,1-4.16-10.71v-.9l9,.17H149v.65a6.68,6.68,0,0,0,.88,3.27c.9,1.56,2.9,2.33,6,2.33a12.62,12.62,0,0,0,5.52-.89,2.27,2.27,0,0,0,1.19-1.05.79.79,0,0,0,.16-.48l.09-.39c0-1.13-.89-2-2.65-2.71a12.15,12.15,0,0,0-2.39-.65,21.93,21.93,0,0,0-2.32-.39,25.28,25.28,0,0,1-8-1.94,14.2,14.2,0,0,1-5.29-3.5,11.12,11.12,0,0,1-2.87-7.52,12.38,12.38,0,0,1,1-4.9,11.26,11.26,0,0,1,1.91-3.1q4.34-5,13.86-5a19,19,0,0,1,9.58,2.25,13.67,13.67,0,0,1,4.9,4.56,14.11,14.11,0,0,1,2,5.05c.09.64.17,1.25.22,1.83V254h-9.66v-1.21a2.32,2.32,0,0,1-.09-.65,4.81,4.81,0,0,0-.64-1.44c-1.18-1.59-3.29-2.39-6.31-2.39q-6.74,0-6.73,2.81a2.59,2.59,0,0,0,1.6,2.31,14.4,14.4,0,0,0,5.67,1.52q9.19,1,13.37,5.84a11.31,11.31,0,0,1,2.79,7.52v.56l-.08.73a7.89,7.89,0,0,1-.23,1.92,10.89,10.89,0,0,1-2.39,4.56,12,12,0,0,1-5.61,3.58A26.9,26.9,0,0,1,155.85,280.86Z"/><path class="cls-2" d="M203,280.41l-13.35-16-3.84,3.75v12.25H174.64v-55.6h11.21v27.52L199,239.21l15.83.08L197.52,256.5l20.42,23.91Z"/><rect x="385.1" y="255.42" width="5" height="25.1"/><g class="cls-3"><path d="M385.1,255.42h5v25.09h-5Z"/></g><path class="cls-2" d="M388,258.66l-14.65-14,4.82-4.68,9.35,10.5s11.08-12.06,25.87-15.64A69.28,69.28,0,0,0,388,258.66Z"/><g class="cls-4"><path class="cls-2" d="M66.24,225.69h97.58V235H66.24Z"/></g><g class="cls-5"><path class="cls-2" d="M78.53,281.68V234.77h9.28v46.91Z"/></g><path d="M322.41,239.62h5.48L310.1,280.68h-1L296,251.22l-13.14,29.46H281.8l-17.48-41.06h5.48l12.55,29.77,13.14-29.77h.92l13.23,29.77Z"/><path d="M346.91,281.68a20,20,0,0,1-10.67-2.94,21.4,21.4,0,0,1-7.58-7.91,21.81,21.81,0,0,1-2.79-10.8,21.14,21.14,0,0,1,2.81-10.7,21.68,21.68,0,0,1,7.71-7.86,20.26,20.26,0,0,1,10.67-2.94,19.72,19.72,0,0,1,9.2,2.17,20,20,0,0,1,7.19,6.42v-7.5h5.19v41.06h-5.19v-7a22.21,22.21,0,0,1-7.5,6A20.67,20.67,0,0,1,346.91,281.68Zm.54-4.79a16.74,16.74,0,0,0,8-2,15.92,15.92,0,0,0,6.07-5.82,16.37,16.37,0,0,0,2.29-8.68,16.8,16.8,0,0,0-2.17-8.5,16.32,16.32,0,0,0-5.87-6,15.91,15.91,0,0,0-8.28-2.21,15.6,15.6,0,0,0-8.31,2.29,16.19,16.19,0,0,0-5.85,6.06,17.07,17.07,0,0,0,0,16.44,16.94,16.94,0,0,0,5.83,6.15A15.29,15.29,0,0,0,347.45,276.89Z"/><g class="cls-6"><g class="cls-7"><path class="cls-2" d="M149.67,223.81h25v13.05h-25Z"/></g></g><path class="cls-2" d="M347.26,259.15a1.68,1.68,0,1,1-1.68,1.68,1.68,1.68,0,0,1,1.68-1.68"/><path class="cls-2" d="M347.45,260.05l-.92,1.17-4-3.16-.22-1.18h1.13l4,3.16"/><path class="cls-2" d="M347.81,261.35l-.56-1,8.8-5.5h1l-.44.95-8.79,5.5"/><path class="cls-8" d="M347.57,245.52a.6.6,0,1,1-.6.6.6.6,0,0,1,.6-.6Z"/><path class="cls-8" d="M347.57,273.82a.59.59,0,0,1,.59.59.6.6,0,1,1-1.19,0,.59.59,0,0,1,.6-.59Z"/><path class="cls-8" d="M362.31,260.26a.6.6,0,1,1-.6-.59.6.6,0,0,1,.6.59Z"/><path class="cls-8" d="M334,260.26a.59.59,0,0,1-.59.6.6.6,0,1,1,0-1.19.59.59,0,0,1,.59.59Z"/><path class="cls-8" d="M354.94,247.5a.6.6,0,0,1,.22.81.61.61,0,0,1-.82.22.6.6,0,0,1-.21-.82.59.59,0,0,1,.81-.21Z"/><path class="cls-8" d="M340.79,272a.6.6,0,0,1,.22.81.59.59,0,0,1-.82.22.6.6,0,0,1,.6-1Z"/><path class="cls-8" d="M360.33,252.89a.59.59,0,0,1-.21.81.6.6,0,0,1-.82-.21.61.61,0,0,1,.22-.82.6.6,0,0,1,.81.22Z"/><path class="cls-8" d="M335.83,267a.6.6,0,1,1-.81-.22.6.6,0,0,1,.81.22Z"/><path class="cls-8" d="M334.8,252.89a.6.6,0,1,1,1,.6.59.59,0,0,1-.81.21.58.58,0,0,1-.22-.81Z"/><path class="cls-8" d="M359.3,267a.61.61,0,0,1,.82-.22.6.6,0,0,1,.21.82.59.59,0,0,1-.81.21.6.6,0,0,1-.22-.81Z"/><path class="cls-8" d="M340.19,247.5a.6.6,0,0,1,.82.21.61.61,0,0,1-.22.82.6.6,0,0,1-.81-.22.59.59,0,0,1,.21-.81Z"/><path class="cls-8" d="M354.34,272a.6.6,0,1,1,.6,1,.58.58,0,0,1-.81-.22.59.59,0,0,1,.21-.81Z"/><path d="M268.44,280.37l-8.5-18.25H235.57l-8.5,18.25h-5.79l25.89-55.52h1.32l25.75,55.52Zm-30.39-23.5h19.41l-9.66-20.81Z"/></svg>