<svg width="348" height="59" viewBox="0 0 348 59" fill="none" xmlns="http://www.w3.org/2000/svg">
  <path d="M60.0901 16.06H71.3001V57.41H60.0901V52.77C57.7967 55.7633 54.3301 57.2567 49.6901 57.25C46.987 57.3135 44.2998 56.8208 41.7951 55.8025C39.2905 54.7841 37.0218 53.2617 35.1301 51.33C33.1732 49.4465 31.6205 47.1842 30.5666 44.6809C29.5127 42.1777 28.9797 39.486 29.0001 36.77C28.9365 34.067 29.4293 31.3797 30.4476 28.875C31.466 26.3704 32.9883 24.1018 34.9201 22.21C36.8019 20.2495 39.0635 18.6931 41.5668 17.6357C44.0701 16.5783 46.7627 16.0422 49.4801 16.06C54.1801 16.06 57.7201 17.58 60.1301 20.62L60.0901 16.06ZM56.7301 43.81C57.6951 42.8803 58.4593 41.7626 58.9753 40.5259C59.4913 39.2893 59.7482 37.9599 59.7301 36.62C59.7682 35.2744 59.5205 33.9361 59.0034 32.6932C58.4863 31.4504 57.7115 30.3314 56.7301 29.41C55.8187 28.4487 54.7112 27.6949 53.4826 27.1997C52.2541 26.7044 50.9333 26.4795 49.6101 26.54C48.2497 26.503 46.8958 26.7397 45.6287 27.2359C44.3616 27.7322 43.2071 28.478 42.2337 29.429C41.2603 30.38 40.4879 31.5169 39.9623 32.7721C39.4367 34.0274 39.1686 35.3754 39.174 36.7363C39.1793 38.0971 39.458 39.443 39.9935 40.6941C40.529 41.9451 41.3103 43.0759 42.2911 44.0192C43.272 44.9625 44.4323 45.6991 45.7033 46.1854C46.9743 46.6717 48.3301 46.8977 49.6901 46.85C52.3454 46.8026 54.8749 45.7103 56.7301 43.81Z" fill="#5051F9" />
  <path d="M89.8501 57.8598C87.3607 57.9137 84.8847 57.4824 82.5601 56.5899C80.6557 55.8426 78.9187 54.7242 77.4501 53.2998C75.9708 51.9618 74.8243 50.2968 74.1021 48.4374C73.3798 46.578 73.1018 44.5757 73.2901 42.5899V41.6899L82.2901 41.8598H83.0001V42.5099C83.0077 43.6574 83.3108 44.7835 83.8801 45.7799C84.7801 47.3399 86.7801 48.1098 89.8801 48.1098C91.7635 48.2296 93.6498 47.9255 95.4001 47.2199C95.9102 47.0244 96.3327 46.6516 96.5901 46.1699C96.6947 46.0317 96.7509 45.8631 96.7501 45.6899L96.8401 45.2998C96.8401 44.1698 95.9501 43.2999 94.1901 42.5899C93.4177 42.2923 92.6169 42.0745 91.8001 41.9399C91.0343 41.7684 90.2599 41.6382 89.4801 41.5498C86.7254 41.3446 84.0229 40.6893 81.4801 39.6098C79.4755 38.857 77.667 37.6605 76.1901 36.1098C74.328 34.0495 73.3042 31.367 73.3201 28.5899C73.3167 26.9055 73.657 25.2382 74.3201 23.6899C74.7844 22.5597 75.4295 21.5127 76.2301 20.5899C79.1235 17.2565 83.7435 15.5899 90.0901 15.5899C93.4257 15.4855 96.7298 16.2616 99.6701 17.8399C101.656 18.9303 103.34 20.4973 104.57 22.3999C105.558 23.9378 106.237 25.6529 106.57 27.4499C106.66 28.0899 106.74 28.6999 106.79 29.2799V30.9999H97.1301V29.7899C97.0695 29.5785 97.0392 29.3597 97.0401 29.1399C96.9074 28.6279 96.6912 28.1414 96.4001 27.6999C95.2201 26.1099 93.1101 25.3099 90.0901 25.3099C85.5968 25.3099 83.3535 26.2465 83.3601 28.1199C83.3763 28.618 83.5358 29.101 83.8196 29.5107C84.1034 29.9205 84.4995 30.2396 84.9601 30.4299C86.7257 31.3205 88.6558 31.8379 90.6301 31.9499C96.7568 32.6165 101.213 34.5632 104 37.7899C105.818 39.8715 106.81 42.5465 106.79 45.3099V45.8699L106.71 46.5999C106.712 47.2469 106.635 47.8917 106.48 48.5198C106.059 50.209 105.24 51.7727 104.09 53.0798C102.595 54.7782 100.65 56.0193 98.4801 56.6599C95.6878 57.5262 92.7729 57.9315 89.8501 57.8598Z" fill="#5051F9" />
  <path d="M137 57.4101L123.65 41.4101L119.81 45.1601V57.4101H108.64V1.81006H119.85V29.3301L133 16.2101L148.83 16.2901L131.52 33.5001L151.94 57.4101H137Z" fill="#5051F9" />
  <path d="M324.1 32.4199H319.1V57.5199H324.1V32.4199Z" fill="black" />
  <mask id="mask0_2058_207" style="mask-type:luminance" maskUnits="userSpaceOnUse" x="319" y="32" width="6" height="26">
    <path d="M324.1 32.4199H319.1V57.5199H324.1V32.4199Z" fill="white" />
  </mask>
  <g mask="url(#mask0_2058_207)">
    <path d="M319.1 32.4199H324.1V57.5099H319.1V32.4199Z" fill="black" />
  </g>
  <path d="M322 35.6599L307.35 21.6599L312.17 16.9798L321.52 27.4798C321.52 27.4798 332.6 15.4198 347.39 11.8398C337.037 17.4893 328.298 25.6881 322 35.6599Z" fill="#5051F9" />
  <mask id="mask1_2058_207" style="mask-type:luminance" maskUnits="userSpaceOnUse" x="0" y="2" width="98" height="10">
    <path d="M97.8002 2.68994H0.240234V11.9699H97.8002V2.68994Z" fill="white" />
  </mask>
  <g mask="url(#mask1_2058_207)">
    <path d="M0.240234 2.68994H97.8202V11.9999H0.240234V2.68994Z" fill="#5051F9" />
  </g>
  <mask id="mask2_2058_207" style="mask-type:luminance" maskUnits="userSpaceOnUse" x="12" y="11" width="10" height="48">
    <path d="M21.8098 11.79H12.5298V58.69H21.8098V11.79Z" fill="white" />
  </mask>
  <g mask="url(#mask2_2058_207)">
    <path d="M12.5298 58.68V11.77H21.8098V58.68H12.5298Z" fill="#5051F9" />
  </g>
  <path d="M256.41 16.6201H261.89L244.1 57.6801H243.1L230 28.2201L216.86 57.6801H215.8L198.32 16.6201H203.8L216.35 46.3901L229.49 16.6201H230.41L243.64 46.3901L256.41 16.6201Z" fill="black" />
  <path d="M280.91 58.6799C277.147 58.7231 273.449 57.704 270.24 55.7399C267.07 53.8056 264.457 51.0796 262.66 47.8299C260.809 44.5326 259.848 40.8109 259.87 37.0299C259.84 33.277 260.81 29.5839 262.68 26.3299C264.531 23.0901 267.186 20.3828 270.39 18.4699C273.605 16.5186 277.299 15.5006 281.06 15.5299C284.257 15.4967 287.414 16.2414 290.26 17.6999C293.144 19.2217 295.612 21.4257 297.45 24.1199V16.6199H302.64V57.6799H297.45V50.6799C295.417 53.203 292.858 55.2508 289.95 56.6799C287.126 58.0215 284.036 58.7053 280.91 58.6799ZM281.45 53.8899C284.242 53.9007 286.992 53.2132 289.45 51.8899C291.958 50.529 294.055 48.5189 295.52 46.0699C297.077 43.4465 297.87 40.4401 297.81 37.3899C297.852 34.4144 297.103 31.481 295.64 28.8899C294.24 26.4123 292.216 24.3439 289.77 22.8899C287.264 21.4097 284.4 20.6453 281.49 20.6799C278.56 20.6476 275.68 21.4412 273.18 22.9699C270.729 24.4384 268.711 26.5291 267.33 29.0299C265.946 31.5486 265.22 34.376 265.22 37.2499C265.22 40.1238 265.946 42.9511 267.33 45.4699C268.721 47.9807 270.727 50.0969 273.16 51.6199C275.649 53.1536 278.526 53.9415 281.45 53.8899Z" fill="black" />
  <mask id="mask3_2058_207" style="mask-type:luminance" maskUnits="userSpaceOnUse" x="83" y="0" width="26" height="14">
    <path d="M108.64 0.810059H83.6699V13.8601H108.64V0.810059Z" fill="white" />
  </mask>
  <g mask="url(#mask3_2058_207)">
    <mask id="mask4_2058_207" style="mask-type:luminance" maskUnits="userSpaceOnUse" x="83" y="0" width="26" height="14">
      <path d="M108.62 7.33006L97.4299 0.810059V6.41006H83.6699V8.26006H97.4299V13.8601L108.62 7.33006Z" fill="white" />
    </mask>
    <g mask="url(#mask4_2058_207)">
      <path d="M83.6699 0.810059H108.67V13.8601H83.6699V0.810059Z" fill="#5051F9" />
    </g>
  </g>
  <path d="M281.26 36.1499C281.592 36.1499 281.917 36.2484 282.193 36.433C282.47 36.6176 282.685 36.88 282.812 37.187C282.939 37.494 282.973 37.8318 282.908 38.1577C282.843 38.4835 282.683 38.7829 282.448 39.0179C282.213 39.2528 281.914 39.4128 281.588 39.4776C281.262 39.5425 280.924 39.5092 280.617 39.382C280.31 39.2549 280.048 39.0395 279.863 38.7633C279.679 38.487 279.58 38.1622 279.58 37.8299C279.58 37.3843 279.757 36.957 280.072 36.642C280.387 36.3269 280.815 36.1499 281.26 36.1499Z" fill="#5051F9" />
  <path d="M281.45 37.0499L280.53 38.2199L276.53 35.0599L276.31 33.8799H277.44L281.44 37.0399" fill="#5051F9" />
  <path d="M281.81 38.3501L281.25 37.3501L290.05 31.8501H291.05L290.61 32.8001L281.82 38.3001" fill="#5051F9" />
  <path fill-rule="evenodd" clip-rule="evenodd" d="M281.57 22.52C281.689 22.52 281.805 22.5552 281.904 22.6211C282.002 22.6871 282.079 22.7808 282.125 22.8904C282.17 23 282.182 23.1207 282.159 23.2371C282.136 23.3535 282.078 23.4604 281.994 23.5443C281.911 23.6282 281.804 23.6853 281.687 23.7085C281.571 23.7316 281.45 23.7198 281.341 23.6743C281.231 23.6289 281.137 23.552 281.071 23.4534C281.005 23.3547 280.97 23.2387 280.97 23.12C280.97 22.9609 281.033 22.8083 281.146 22.6958C281.258 22.5832 281.411 22.52 281.57 22.52Z" fill="#5051F9" />
  <path fill-rule="evenodd" clip-rule="evenodd" d="M281.57 50.8199C281.726 50.8199 281.876 50.8821 281.987 50.9927C282.098 51.1033 282.16 51.2534 282.16 51.4099C282.171 51.4945 282.164 51.5805 282.139 51.6621C282.114 51.7437 282.072 51.8191 282.016 51.8832C281.959 51.9473 281.89 51.9987 281.812 52.0338C281.734 52.069 281.65 52.0872 281.565 52.0872C281.48 52.0872 281.395 52.069 281.317 52.0338C281.24 51.9987 281.17 51.9473 281.114 51.8832C281.058 51.8191 281.016 51.7437 280.991 51.6621C280.966 51.5805 280.959 51.4945 280.97 51.4099C280.97 51.3316 280.985 51.254 281.016 51.1818C281.046 51.1095 281.09 51.044 281.146 50.9891C281.202 50.9342 281.268 50.891 281.341 50.8619C281.414 50.8328 281.492 50.8186 281.57 50.8199Z" fill="#5051F9" />
  <path fill-rule="evenodd" clip-rule="evenodd" d="M296.31 37.2599C296.312 37.379 296.278 37.4959 296.214 37.5959C296.149 37.6959 296.056 37.7744 295.946 37.8213C295.837 37.8683 295.716 37.8816 295.599 37.8596C295.482 37.8375 295.374 37.7812 295.289 37.6977C295.204 37.6142 295.146 37.5073 295.122 37.3907C295.098 37.274 295.109 37.1529 295.155 37.0427C295.2 36.9324 295.277 36.8381 295.375 36.7718C295.474 36.7054 295.591 36.6699 295.71 36.6699C295.867 36.6699 296.018 36.7317 296.131 36.8421C296.243 36.9525 296.307 37.1025 296.31 37.2599Z" fill="#5051F9" />
  <path fill-rule="evenodd" clip-rule="evenodd" d="M268 37.26C268.002 37.3384 267.987 37.4161 267.958 37.4889C267.929 37.5616 267.886 37.6279 267.831 37.6837C267.776 37.7396 267.711 37.7839 267.638 37.8142C267.566 37.8444 267.489 37.86 267.41 37.86C267.326 37.871 267.24 37.8638 267.158 37.839C267.076 37.8141 267.001 37.7721 266.937 37.7158C266.873 37.6595 266.821 37.5901 266.786 37.5124C266.751 37.4347 266.733 37.3504 266.733 37.265C266.733 37.1797 266.751 37.0954 266.786 37.0176C266.821 36.9399 266.873 36.8706 266.937 36.8143C267.001 36.758 267.076 36.716 267.158 36.6911C267.24 36.6662 267.326 36.659 267.41 36.67C267.567 36.67 267.717 36.7322 267.827 36.8428C267.938 36.9535 268 37.1036 268 37.26Z" fill="#5051F9" />
  <path fill-rule="evenodd" clip-rule="evenodd" d="M288.94 24.4998C289.075 24.5792 289.174 24.7085 289.215 24.8599C289.256 25.0113 289.236 25.1728 289.16 25.3098C289.079 25.4458 288.947 25.5448 288.794 25.5859C288.641 25.6269 288.478 25.6068 288.34 25.5298C288.204 25.4486 288.105 25.3168 288.066 25.1631C288.026 25.0095 288.049 24.8465 288.13 24.7098C288.169 24.6427 288.221 24.5839 288.283 24.537C288.345 24.4901 288.416 24.4559 288.491 24.4364C288.566 24.4168 288.645 24.4124 288.722 24.4233C288.799 24.4342 288.873 24.4602 288.94 24.4998Z" fill="#5051F9" />
  <path fill-rule="evenodd" clip-rule="evenodd" d="M274.79 49C274.925 49.0794 275.024 49.2087 275.065 49.3601C275.106 49.5115 275.086 49.673 275.01 49.81C274.972 49.8793 274.92 49.9402 274.857 49.989C274.795 50.0378 274.723 50.0736 274.647 50.0941C274.57 50.1146 274.49 50.1195 274.412 50.1085C274.333 50.0975 274.258 50.0708 274.19 50.03C274.094 49.9355 274.033 49.8116 274.016 49.6782C273.999 49.5447 274.028 49.4094 274.097 49.2941C274.166 49.1787 274.272 49.0899 274.398 49.0421C274.523 48.9942 274.662 48.9899 274.79 49.03V49Z" fill="#5051F9" />
  <path fill-rule="evenodd" clip-rule="evenodd" d="M294.33 29.8899C294.37 29.9569 294.396 30.0309 294.407 30.1079C294.417 30.1849 294.413 30.2633 294.393 30.3386C294.374 30.4139 294.34 30.4846 294.293 30.5466C294.246 30.6086 294.187 30.6607 294.12 30.6999C293.983 30.7804 293.82 30.8035 293.667 30.7642C293.513 30.7248 293.381 30.6262 293.3 30.4899C293.223 30.3515 293.203 30.1884 293.244 30.0354C293.285 29.8823 293.384 29.7513 293.52 29.6699C293.657 29.5934 293.819 29.5736 293.97 29.6147C294.121 29.6559 294.251 29.7546 294.33 29.8899Z" fill="#5051F9" />
  <path fill-rule="evenodd" clip-rule="evenodd" d="M269.83 43.9998C269.89 44.1026 269.919 44.2211 269.911 44.3401C269.904 44.4591 269.862 44.5732 269.789 44.6679C269.717 44.7626 269.618 44.8337 269.505 44.8719C269.392 44.9101 269.27 44.9139 269.155 44.8826C269.04 44.8514 268.937 44.7866 268.859 44.6965C268.781 44.6063 268.731 44.495 268.717 44.3767C268.702 44.2584 268.723 44.1384 268.777 44.0321C268.831 43.9258 268.916 43.8379 269.02 43.7798C269.157 43.7033 269.318 43.6835 269.47 43.7246C269.621 43.7657 269.75 43.8645 269.83 43.9998Z" fill="#5051F9" />
  <path fill-rule="evenodd" clip-rule="evenodd" d="M268.8 29.89C268.827 29.8033 268.874 29.7239 268.936 29.6577C268.998 29.5915 269.074 29.5404 269.159 29.508C269.244 29.4757 269.335 29.4631 269.426 29.4711C269.516 29.4791 269.604 29.5075 269.682 29.5542C269.76 29.601 269.826 29.6648 269.875 29.7408C269.925 29.8169 269.957 29.9032 269.968 29.9933C269.98 30.0835 269.97 30.175 269.941 30.261C269.912 30.347 269.864 30.4253 269.8 30.49C269.761 30.5572 269.709 30.6159 269.647 30.6628C269.585 30.7097 269.514 30.7439 269.439 30.7635C269.364 30.783 269.285 30.7874 269.208 30.7765C269.131 30.7656 269.057 30.7396 268.99 30.7C268.921 30.6626 268.861 30.6116 268.812 30.5501C268.763 30.4886 268.727 30.4178 268.707 30.3421C268.686 30.2664 268.681 30.1873 268.692 30.1096C268.703 30.0319 268.73 29.9572 268.77 29.89H268.8Z" fill="#5051F9" />
  <path fill-rule="evenodd" clip-rule="evenodd" d="M293.3 44C293.381 43.864 293.512 43.765 293.665 43.724C293.818 43.6829 293.981 43.703 294.12 43.78C294.256 43.8612 294.355 43.993 294.394 44.1467C294.433 44.3004 294.41 44.4633 294.33 44.6C294.291 44.6672 294.238 44.7259 294.176 44.7728C294.114 44.8197 294.044 44.854 293.968 44.8735C293.893 44.893 293.815 44.8974 293.738 44.8865C293.661 44.8756 293.587 44.8496 293.52 44.81C293.385 44.7306 293.286 44.6013 293.245 44.4499C293.203 44.2985 293.223 44.137 293.3 44Z" fill="#5051F9" />
  <path fill-rule="evenodd" clip-rule="evenodd" d="M274.19 24.5C274.326 24.4195 274.489 24.3964 274.643 24.4358C274.797 24.4751 274.929 24.5737 275.01 24.71C275.087 24.8485 275.107 25.0115 275.066 25.1645C275.025 25.3176 274.926 25.4487 274.79 25.53C274.653 25.6065 274.491 25.6263 274.34 25.5852C274.188 25.5441 274.059 25.4453 273.98 25.31C273.94 25.2431 273.914 25.169 273.903 25.092C273.892 25.015 273.897 24.9366 273.916 24.8613C273.936 24.786 273.97 24.7154 274.017 24.6534C274.064 24.5913 274.123 24.5392 274.19 24.5Z" fill="#5051F9" />
  <path fill-rule="evenodd" clip-rule="evenodd" d="M288.34 48.9999C288.405 48.9361 288.483 48.8879 288.569 48.8588C288.655 48.8297 288.747 48.8205 288.837 48.8319C288.927 48.8433 289.013 48.875 289.089 48.9247C289.165 48.9743 289.229 49.0406 289.276 49.1184C289.323 49.1963 289.351 49.2838 289.359 49.3743C289.367 49.4647 289.354 49.5558 289.322 49.6407C289.29 49.7256 289.239 49.802 289.172 49.8643C289.106 49.9265 289.027 49.9728 288.94 49.9999C288.873 50.0405 288.798 50.067 288.721 50.0779C288.643 50.0888 288.564 50.0839 288.488 50.0633C288.412 50.0427 288.342 50.007 288.28 49.9583C288.219 49.9096 288.168 49.8489 288.13 49.7799C288.091 49.713 288.065 49.6389 288.054 49.5619C288.043 49.4849 288.047 49.4065 288.067 49.3312C288.086 49.256 288.12 49.1853 288.167 49.1233C288.214 49.0613 288.273 49.0091 288.34 48.9699V48.9999Z" fill="#5051F9" />
  <path d="M202.44 57.3701L193.94 39.1201H169.57L161.07 57.3701H155.28L181.17 1.8501H182.49L208.24 57.3701H202.44ZM172.05 33.8701H191.46L181.8 13.0601L172.05 33.8701Z" fill="black" />
</svg>